<?xml version="1.0" encoding="utf-8" ?><svg xmlns="http://www.w3.org/2000/svg" xmlns:xlink="http://www.w3.org/1999/xlink" width="1024" height="1024" viewBox="0 0 1024 1024"><path fill="white" d="M0 0L1024 0L1024 1024L0 1024L0 0Z"/><defs><linearGradient id="gradient_0" gradientUnits="userSpaceOnUse" x1="427.32092" y1="288.41714" x2="763.49554" y2="1019.1252"><stop offset="0" stop-color="#55CA79"/><stop offset="1" stop-color="#007CA9"/></linearGradient></defs><path fill="url(#gradient_0)" d="M198.102 392.762C203.567 392.139 221.972 395.321 229.017 396.19C286.485 403.277 341.956 402.227 399.573 398.184C399.33 414.952 399.286 431.723 399.441 448.492C399.465 452.706 399.278 467.264 399.92 470.773C400.36 498.707 399.723 526.946 400.01 554.849C400.162 569.596 398.83 593.38 402.165 606.824C404.42 615.808 409.102 623.998 415.7 630.499C435.421 649.845 463.802 646.367 489.271 646.331L557.23 646.255C633.324 646.65 709.419 646.587 785.511 646.066C820.745 645.54 846.243 623.009 844.332 587.277C844.121 583.339 844.052 577.73 844.184 573.784C844.988 570.718 844.662 551.951 844.656 548.012L844.645 492.568C848.83 494.293 862.335 496.154 868.005 497.622C892.821 504.05 918.204 509.946 942.313 518.743C947.696 520.707 956.065 523.45 960.901 526.114C951.788 561.963 942.484 597.762 932.99 633.512L924.124 668.179C922.489 674.396 920.318 683.178 917.976 689.026C915.611 694.838 912.12 700.125 907.703 704.583C900.376 711.895 891.193 717.069 881.142 719.548C872.01 721.707 856.303 722.466 846.415 723.307L793.257 728.198L458.025 758.57C428.63 761.35 399.221 763.981 369.799 766.464L341.317 768.988C330.996 769.888 316.862 769.5 309.525 777.549C304.564 782.991 302.776 788.298 303.237 795.515C303.871 805.629 310.82 814.24 320.571 816.996C326.53 818.708 345.498 817.937 352.83 817.954L416.777 818.012L728.577 818.05L824.387 818.034L853.857 818.036C865.753 818.039 875.959 816.443 885.493 825.243C891.065 830.393 894.364 837.545 894.664 845.127C895.439 864.374 881.266 875.353 863.144 874.642C858.291 874.452 852.892 874.634 848.018 874.746C851.782 881.479 854.727 887.551 857.055 894.938C863.742 916.536 861.552 939.908 850.97 959.887C840.127 980.586 821.532 996.15 799.248 1003.18C777.159 1009.83 753.334 1007.44 733.003 996.546C712.93 986.009 697.984 967.787 691.58 946.04C683.949 920.456 688.345 897.923 700.674 874.893L468.709 874.959C471.618 880.242 473.86 884.517 475.903 890.22C483.826 912.022 482.662 936.093 472.671 957.028C462.274 978.603 444.997 994.426 422.275 1002.19C400.437 1009.8 376.445 1008.2 355.806 997.772C319.994 980.107 301.942 942.685 309.301 903.542C311.345 892.669 315.512 884.387 320.336 874.626C315.056 874.382 309.819 873.557 304.72 872.164C283.72 866.421 265.853 852.585 255.036 833.691C244.186 814.395 241.478 791.569 247.513 770.271C254.335 745.847 267.465 731.29 289.02 719.119C281.105 693.745 274.112 665.938 267.01 640.127L226.089 493.21C217.175 460.841 208.013 424.54 198.102 392.762Z"/><path fill="white" d="M768.672 883.863C788.638 880.756 807.333 894.449 810.394 914.423C813.455 934.396 799.717 953.06 779.737 956.074C759.822 959.078 741.234 945.396 738.183 925.488C735.132 905.58 748.771 886.96 768.672 883.863Z"/><path fill="white" d="M392.485 883.415C412.532 882.505 429.551 897.952 430.583 917.993C431.615 938.033 416.273 955.147 396.24 956.302C376.031 957.468 358.735 941.962 357.694 921.747C356.653 901.532 372.264 884.332 392.485 883.415Z"/><defs><linearGradient id="gradient_1" gradientUnits="userSpaceOnUse" x1="587.36005" y1="313.59357" x2="700.54449" y2="650.72241"><stop offset="0" stop-color="#5DC972"/><stop offset="1" stop-color="#0C9B9A"/></linearGradient></defs><path fill="url(#gradient_1)" d="M425.169 538.788L425.158 538.063L425.04 263.512L425.021 178.416C425.013 164.359 424.656 149.298 425.356 135.317C425.666 129.113 430.11 120.752 434.522 116.3C438.518 112.268 443.536 109.398 449.038 107.999C457.077 105.88 492.036 106.721 502.587 106.743C502.677 119.339 502.128 133.414 511.8 143.092C521.728 153.027 534.721 151.092 547.845 151.082L586.529 151.03L709.013 151.049C716.15 151.018 720.267 151.038 726.781 147.906C743.373 139.929 740.719 122.369 740.564 107.139C751.004 107.31 761.447 107.346 771.888 107.245C787.287 107.224 800.974 105.331 812.01 118.502C819.718 127.702 819.609 136.588 819.531 147.994C819.483 154.971 819.527 162.157 819.523 169.151L819.45 236.209L819.344 486.205L819.302 556.641C819.338 569.423 819.576 582.365 818.957 594.94C818.311 608.073 806.508 619.294 793.677 620.008C780.682 620.731 766.686 620.365 753.585 620.372L672.899 620.392L527.568 620.412C503.713 620.409 479.857 620.461 456.003 620.39C449.797 620.371 445.481 619.623 439.949 616.703C422.6 607.544 424.974 589.299 425.03 572.801L425.169 538.788Z"/><defs><linearGradient id="gradient_2" gradientUnits="userSpaceOnUse" x1="548.68549" y1="70.389015" x2="645.02545" y2="323.32861"><stop offset="0" stop-color="#98E248"/><stop offset="1" stop-color="#6BCC6A"/></linearGradient></defs><path fill="url(#gradient_2)" d="M425.169 538.788L425.158 538.063L425.04 263.512L425.021 178.416C425.013 164.359 424.656 149.298 425.356 135.317C425.666 129.113 430.11 120.752 434.522 116.3C438.518 112.268 443.536 109.398 449.038 107.999C457.077 105.88 492.036 106.721 502.587 106.743C502.677 119.339 502.128 133.414 511.8 143.092C521.728 153.027 534.721 151.092 547.845 151.082L586.529 151.03L709.013 151.049C716.15 151.018 720.267 151.038 726.781 147.906C743.373 139.929 740.719 122.369 740.564 107.139C751.004 107.31 761.447 107.346 771.888 107.245C787.287 107.224 800.974 105.331 812.01 118.502C819.718 127.702 819.609 136.588 819.531 147.994C819.483 154.971 819.527 162.157 819.523 169.151L819.45 236.209C815.109 235.202 786.691 247.734 779.101 249.814C774.89 264.922 762.791 260.233 750.77 261.096C745.842 261.207 732.766 269.308 727.948 271.822C710.405 280.905 692.961 290.176 675.619 299.635C648.61 314.545 622.083 330.098 593.961 342.878C589.03 345.118 577.373 350.643 572.382 351.651C573.311 349.398 573.967 346.075 572.659 344.048C566.336 334.255 556.819 345.064 553.536 349.308C551.526 347.339 547.656 343.446 544.79 342.862C531.817 340.218 516.203 342.808 503.289 341.78C465.133 338.739 471.818 356.954 471.583 385.58C456.761 388.455 440.461 393.253 425.404 394.533L425.664 503.321C425.653 508.332 426.061 535.555 425.169 538.788Z"/><path fill="white" d="M750.77 261.096L654.035 261.032L625.08 261.068C619.596 261.074 607.771 261.829 603.136 259.363C600.194 257.801 598.053 255.062 597.247 251.829C596.422 248.508 596.994 244.993 598.831 242.104C600.266 239.847 603.461 237.226 606.065 236.966C613.059 236.268 621.154 236.523 628.21 236.523L670.551 236.536L734.123 236.565C745.251 236.573 756.559 236.346 767.659 236.872C775.27 237.233 778.255 243.172 779.101 249.814C774.89 264.922 762.791 260.233 750.77 261.096Z"/><path fill="white" d="M562.631 205.039C565.951 204.847 567.78 204.769 570.456 207.057C578.839 214.225 561.1 227.645 555.507 233.05C555.352 247.269 556.142 261.669 555.409 275.862C554.724 283.28 549.087 290.486 541.57 291.518C531.661 292.877 521.713 292.036 511.734 292.225C503.338 292.384 494.74 292.558 486.418 291.837C483.267 291.563 480.923 290.181 478.402 288.517C474.472 285.012 471.783 280.756 471.592 275.428C471.234 265.262 471.251 255.218 471.271 245.02C471.604 236.996 470.43 228.025 471.743 220.133C473.142 211.725 481.677 206.537 489.629 206.475C502.187 206.363 514.841 206.669 527.395 206.458C538.992 206.264 544.163 205.532 553.217 213.625C556.53 209.797 558.364 207.732 562.631 205.039Z"/><path fill="#8CDC50" d="M489.831 219.211C497.102 219.033 536.101 218.16 539.69 220.396C540.807 221.092 541.147 221.744 541.543 222.958C540.304 226.198 517.08 246.293 512.897 250.142C511.188 248.633 490.81 222.54 487.671 246.178C487.483 247.592 497.268 258.186 499.492 260.265C503.866 264.354 507.695 271.763 514.664 269.844C520.636 266.181 537.193 249.99 542.816 244.524C542.535 251.91 544.08 272.442 541.617 277.343C539.162 279.104 533.399 279.739 530.658 279.444C523.928 278.719 489.607 281.325 485.448 277.209C484.776 274.924 484.479 272.631 484.351 270.26C484.063 264.969 483.805 223.592 484.948 221.611C485.931 219.907 488.084 219.513 489.831 219.211Z"/><path fill="white" d="M553.536 349.308C556.819 345.064 566.336 334.255 572.659 344.048C573.967 346.075 573.311 349.398 572.382 351.651C567.547 357.002 561.364 363.151 555.821 367.76C555.798 376.493 555.826 385.227 555.905 393.96C555.964 402.86 557.383 415.254 550.732 422.009C549.291 423.562 545.1 426.472 543.01 426.695C526.232 428.484 508.795 427.031 491.895 427.653C466.683 428.582 471.388 402.368 471.583 385.58C471.818 356.954 465.133 338.739 503.289 341.78C516.203 342.808 531.817 340.218 544.79 342.862C547.656 343.446 551.526 347.339 553.536 349.308Z"/><defs><linearGradient id="gradient_3" gradientUnits="userSpaceOnUse" x1="510.31293" y1="353.05594" x2="516.12781" y2="415.30948"><stop offset="0" stop-color="#6ECF66"/><stop offset="1" stop-color="#45BD82"/></linearGradient></defs><path fill="url(#gradient_3)" d="M543.001 379.857C542.853 389.413 544.469 404.509 541.425 412.96C537.949 415.177 517.238 414.759 514.317 414.566C508.973 414.212 485.259 416.621 485.153 411.876C484.936 402.164 482.89 364.01 485.197 356.812C486.519 355.464 487.223 354.93 489.258 354.807C504.421 353.873 519.967 354.318 535.165 354.47C536.799 354.487 542.452 355.737 542.079 357.381C541.137 361.538 531.246 369.227 528.484 371.663L513.559 385.702C509.935 382.138 506.928 378.889 503.538 375.143C500.23 372.344 496.632 369.344 492.583 371.892C481.836 378.656 492.855 388.24 498.175 393.595C503 398.451 507.111 404.229 513.447 405.547C519.558 403.469 537.527 385.144 543.001 379.857Z"/><path fill="#48C076" d="M503.538 375.143C505.401 374.339 522.906 371.129 525.854 370.465C527.33 370.133 527.559 370.791 528.484 371.663L513.559 385.702C509.935 382.138 506.928 378.889 503.538 375.143Z"/><path fill="white" d="M563.525 474.579C566.412 474.508 569.012 474.727 571.206 476.889C578.903 484.473 561.661 497.102 556.017 502.216C555.351 514.269 557.791 545.519 553.156 553.766C550.838 557.957 546.854 560.971 542.19 562.06C535.475 563.639 496.058 562.636 486.779 562.456C484.042 562.403 480.96 560.744 478.638 559.259C472.26 553.37 471.505 549.447 471.463 541.034C471.392 527.022 471.397 513.009 471.433 498.99C471.441 495.831 471.378 492.503 472.189 489.279C473.677 483.363 479.658 477.931 485.485 477.109C493.1 476.035 500.462 476.477 507.957 476.532C516.44 476.603 524.923 476.587 533.405 476.484C542.851 476.453 546.816 477.488 553.434 484.06C556.912 479.873 558.7 477.201 563.525 474.579Z"/><defs><linearGradient id="gradient_4" gradientUnits="userSpaceOnUse" x1="504.328" y1="486.09244" x2="521.92505" y2="552.86792"><stop offset="0" stop-color="#43BC85"/><stop offset="1" stop-color="#20A88F"/></linearGradient></defs><path fill="url(#gradient_4)" d="M492.707 489.233C501.841 489.343 510.976 489.367 520.111 489.303C525.203 489.293 538.974 488.161 541.951 492.599C541.907 492.963 541.862 493.327 541.818 493.691C535.779 500.068 518.713 515.331 513.168 520.305C506.807 514.766 496.143 498.18 488.2 512.773C486.147 519.066 498.219 528.173 502.237 532.667C507.007 538.001 510.517 541.628 516.735 538.331C525.012 531.904 535.211 521.791 543.023 514.423C542.785 520.985 543.669 543.152 542.172 547.377C540.442 549.078 535.333 550.05 533.042 549.842C524.079 549.031 492.067 552.093 485.721 547.789C483.29 541.863 484.974 523.649 484.47 516.243C484.017 509.577 484.666 500.874 484.597 494.055C484.556 489.976 489.637 489.417 492.707 489.233Z"/><path fill="white" d="M672.61 508.751L738.882 508.773C748.497 508.788 759.361 508.342 768.84 509.187C781.697 510.333 782.921 530.52 769.433 532.564C762.154 533.668 754.258 533.232 746.895 533.245L705.25 533.289L639.327 533.358C629.286 533.37 618.46 533.615 608.428 533.04C605.917 532.896 602.977 531.503 601.116 529.743C598.838 527.57 597.505 524.59 597.402 521.444C597.241 515.52 601.121 509.94 607.184 509.294C614.597 508.504 622.336 508.787 629.795 508.784L672.61 508.751Z"/><path fill="white" d="M606.554 374.133C615.324 373.715 625.332 373.941 634.25 373.929L681.747 373.883L733.864 373.859C744.231 373.842 754.252 373.952 765.093 373.928C775.559 373.906 781.521 380.332 778.009 391.235C777.011 394.333 772.935 396.666 769.811 397.709C764.133 398.294 753.738 398.021 747.721 398.025L707.26 398.042L646.497 398.08C634.879 398.102 623.584 398.06 611.633 398.013C601.349 397.972 594.017 391.14 598.468 380.359C599.787 377.165 603.298 375.25 606.554 374.133Z"/><defs><linearGradient id="gradient_5" gradientUnits="userSpaceOnUse" x1="145.89069" y1="96.547997" x2="321.79492" y2="436.90173"><stop offset="0" stop-color="#A4E942"/><stop offset="1" stop-color="#70CD6A"/></linearGradient></defs><path fill="url(#gradient_5)" d="M198.102 392.762C187.36 353.302 176.306 313.927 164.94 274.641L155.781 242.715C153.578 234.989 150.385 221.546 145.903 215.037C136.392 202.23 115.587 205.087 101.512 205.278C89.0977 205.446 73.0851 204.201 61.4979 205.02C21.3221 207.859 13.485 150.316 54.649 146.527C68.777 145.226 84.2149 147.206 98.4967 146.449C124.417 147.004 147.508 142.508 170.895 156.625C201.017 174.805 205.548 197.072 214.334 228.123L226.561 270.629C247.356 271.34 269.906 270.929 290.862 270.938L399.845 270.899L399.994 396.17C399.996 419.497 400.744 447.917 399.92 470.773C399.278 467.264 399.465 452.706 399.441 448.492C399.286 431.723 399.33 414.952 399.573 398.184C341.956 402.227 286.485 403.277 229.017 396.19C221.972 395.321 203.567 392.139 198.102 392.762Z"/><defs><linearGradient id="gradient_6" gradientUnits="userSpaceOnUse" x1="872.31689" y1="260.96326" x2="973.74274" y2="519.10028"><stop offset="0" stop-color="#50C17B"/><stop offset="1" stop-color="#28AB91"/></linearGradient></defs><path fill="url(#gradient_6)" d="M844.323 270.834C878.872 270.357 913.55 271.443 948.166 270.814C971.701 270.386 990.729 273.44 1004.47 295.22C1016.92 314.952 1011.63 333.067 1006.1 353.888L997.72 385.437L970.876 487.897C967.614 500.533 963.88 513.519 960.901 526.114C956.065 523.45 947.696 520.707 942.313 518.743C918.204 509.946 892.821 504.05 868.005 497.622C862.335 496.154 848.83 494.293 844.645 492.568L844.656 548.012C844.662 551.951 844.988 570.718 844.184 573.784L844.323 270.834Z"/><path fill="#8CDC50" d="M618.05 27.162C635.403 24.5956 651.935 34.77 659.94 49.9179C664.034 57.6664 665.194 65.152 665.601 73.8251C718.951 73.5713 717.877 72.0457 716.105 126.244C706.05 126.637 694.218 126.378 684 126.38L625.375 126.36L560.802 126.42C552.442 126.43 535.331 126.895 527.416 126.104C527.162 123.721 527.033 121.326 527.03 118.929C526.514 68.8445 532.998 73.3419 580.169 73.4733C579.677 48.2715 592.863 31.3002 618.05 27.162Z"/><path fill="white" d="M618.74 53.2279C627.785 51.0563 636.884 56.6063 639.093 65.6427C641.302 74.6791 635.789 83.8009 626.762 86.0471C617.682 88.3065 608.495 82.7547 606.273 73.6654C604.052 64.5761 609.641 55.4122 618.74 53.2279Z"/></svg>